<svg width="35" height="26" viewBox="0 0 35 26" fill="none" xmlns="http://www.w3.org/2000/svg">
<rect width="35" height="26" rx="5" fill="#F23D5B"/>
<path d="M5.38086 14.4219V13.3613H8.62109V14.4219H5.38086ZM18.3066 10.5137L17.2578 10.5957C17.1641 10.1816 17.0312 9.88086 16.8594 9.69336C16.5742 9.39258 16.2227 9.24219 15.8047 9.24219C15.4688 9.24219 15.1738 9.33594 14.9199 9.52344C14.5879 9.76562 14.3262 10.1191 14.1348 10.584C13.9434 11.0488 13.8438 11.7109 13.8359 12.5703C14.0898 12.1836 14.4004 11.8965 14.7676 11.709C15.1348 11.5215 15.5195 11.4277 15.9219 11.4277C16.625 11.4277 17.2227 11.6875 17.7148 12.207C18.2109 12.7227 18.459 13.3906 18.459 14.2109C18.459 14.75 18.3418 15.252 18.1074 15.7168C17.877 16.1777 17.5586 16.5312 17.1523 16.7773C16.7461 17.0234 16.2852 17.1465 15.7695 17.1465C14.8906 17.1465 14.1738 16.8242 13.6191 16.1797C13.0645 15.5312 12.7871 14.4648 12.7871 12.9805C12.7871 11.3203 13.0938 10.1133 13.707 9.35938C14.2422 8.70312 14.9629 8.375 15.8691 8.375C16.5449 8.375 17.0977 8.56445 17.5273 8.94336C17.9609 9.32227 18.2207 9.8457 18.3066 10.5137ZM14 14.2168C14 14.5801 14.0762 14.9277 14.2285 15.2598C14.3848 15.5918 14.6016 15.8457 14.8789 16.0215C15.1562 16.1934 15.4473 16.2793 15.752 16.2793C16.1973 16.2793 16.5801 16.0996 16.9004 15.7402C17.2207 15.3809 17.3809 14.8926 17.3809 14.2754C17.3809 13.6816 17.2227 13.2148 16.9062 12.875C16.5898 12.5312 16.1914 12.3594 15.7109 12.3594C15.2344 12.3594 14.8301 12.5312 14.498 12.875C14.166 13.2148 14 13.6621 14 14.2168ZM19.7129 10.4727C19.7129 9.85938 19.8672 9.33789 20.1758 8.9082C20.4844 8.47852 20.9316 8.26367 21.5176 8.26367C22.0566 8.26367 22.502 8.45703 22.8535 8.84375C23.209 9.22656 23.3867 9.79102 23.3867 10.5371C23.3867 11.2637 23.207 11.8242 22.8477 12.2188C22.4922 12.6094 22.0527 12.8047 21.5293 12.8047C21.0098 12.8047 20.5762 12.6113 20.2285 12.2246C19.8848 11.8379 19.7129 11.2539 19.7129 10.4727ZM21.5469 8.99023C21.2852 8.99023 21.0664 9.10352 20.8906 9.33008C20.7188 9.55664 20.6328 9.97266 20.6328 10.5781C20.6328 11.1289 20.7207 11.5176 20.8965 11.7441C21.0723 11.9668 21.2891 12.0781 21.5469 12.0781C21.8125 12.0781 22.0312 11.9648 22.2031 11.7383C22.3789 11.5117 22.4668 11.0977 22.4668 10.4961C22.4668 9.94141 22.3789 9.55273 22.2031 9.33008C22.0273 9.10352 21.8086 8.99023 21.5469 8.99023ZM21.5527 17.3164L26.252 8.26367H27.1074L22.4258 17.3164H21.5527ZM25.2676 14.9844C25.2676 14.3672 25.4219 13.8457 25.7305 13.4199C26.0391 12.9902 26.4883 12.7754 27.0781 12.7754C27.6172 12.7754 28.0625 12.9688 28.4141 13.3555C28.7695 13.7383 28.9473 14.3027 28.9473 15.0488C28.9473 15.7754 28.7676 16.3359 28.4082 16.7305C28.0527 17.1211 27.6113 17.3164 27.084 17.3164C26.5645 17.3164 26.1309 17.123 25.7832 16.7363C25.4395 16.3457 25.2676 15.7617 25.2676 14.9844ZM27.1074 13.502C26.8418 13.502 26.6211 13.6152 26.4453 13.8418C26.2734 14.0684 26.1875 14.4844 26.1875 15.0898C26.1875 15.6367 26.2754 16.0234 26.4512 16.25C26.627 16.4766 26.8438 16.5898 27.1016 16.5898C27.3711 16.5898 27.5918 16.4766 27.7637 16.25C27.9395 16.0234 28.0273 15.6094 28.0273 15.0078C28.0273 14.4531 27.9395 14.0645 27.7637 13.8418C27.5879 13.6152 27.3691 13.502 27.1074 13.502Z" fill="white"/>
</svg>
