<svg width="136" height="68" viewBox="0 0 136 68" fill="none" xmlns="http://www.w3.org/2000/svg">
<rect x="0.5" y="0.5" width="66" height="23" rx="4.5" fill="white" stroke="#DAE0E6"/>
<path d="M9.522 16.126C7.12333 16.126 5.924 14.6093 5.924 11.576V11.338C5.924 9.58333 6.27867 8.23467 6.988 7.292C7.70667 6.34 8.65867 5.864 9.844 5.864C10.6467 5.864 11.3 6.06933 11.804 6.48C12.3173 6.89067 12.6393 7.49267 12.77 8.286H11.608C11.496 7.80067 11.2953 7.44133 11.006 7.208C10.7167 6.97467 10.3013 6.858 9.76 6.858C8.98533 6.858 8.36 7.20333 7.884 7.894C7.408 8.58467 7.156 9.574 7.128 10.862C7.66933 9.95667 8.528 9.504 9.704 9.504C10.684 9.504 11.4727 9.81667 12.07 10.442C12.6767 11.058 12.98 11.8373 12.98 12.78C12.98 13.788 12.6673 14.6 12.042 15.216C11.4167 15.8227 10.5767 16.126 9.522 16.126ZM9.522 15.174C10.1753 15.174 10.7073 14.9593 11.118 14.53C11.5287 14.1007 11.734 13.536 11.734 12.836C11.734 12.108 11.5333 11.5293 11.132 11.1C10.7307 10.6707 10.1893 10.456 9.508 10.456C8.836 10.456 8.28533 10.6613 7.856 11.072C7.42667 11.4827 7.212 12.0147 7.212 12.668C7.212 13.4613 7.422 14.0773 7.842 14.516C8.27133 14.9547 8.83133 15.174 9.522 15.174ZM17.6502 5.136H18.7142L14.6402 18.072H13.5762L17.6502 5.136ZM21.868 7.194L19.628 8.804V7.67L21.952 5.99H23.086V16H21.868V7.194ZM25.1879 15.72L29.1639 11.534C30.1252 10.5167 30.6059 9.55067 30.6059 8.636C30.6059 8.076 30.4472 7.63733 30.1299 7.32C29.8219 7.00267 29.3832 6.844 28.8139 6.844C27.6006 6.844 26.8959 7.586 26.6999 9.07H25.5659C25.6406 8.08067 25.9626 7.30133 26.5319 6.732C27.1106 6.15333 27.8712 5.864 28.8139 5.864C29.7379 5.864 30.4706 6.12067 31.0119 6.634C31.5626 7.138 31.8379 7.81933 31.8379 8.678C31.8379 9.77933 31.1659 10.9927 29.8219 12.318L27.0639 15.006H31.8939V16H25.1879V15.72ZM36.9709 16.126C36.4015 16.126 35.8602 16.0233 35.3469 15.818C34.8335 15.6033 34.3995 15.2627 34.0449 14.796C33.6902 14.3293 33.5129 13.7833 33.5129 13.158C33.5129 12.514 33.6855 11.9727 34.0309 11.534C34.3762 11.0953 34.8335 10.7733 35.4029 10.568C34.3949 10.1667 33.8909 9.46667 33.8909 8.468C33.8909 7.70267 34.1989 7.07733 34.8149 6.592C35.4402 6.10667 36.1589 5.864 36.9709 5.864C37.7829 5.864 38.4969 6.10667 39.1129 6.592C39.7289 7.068 40.0369 7.684 40.0369 8.44C40.0369 9.40133 39.5235 10.106 38.4969 10.554C39.7755 11.03 40.4149 11.8887 40.4149 13.13C40.4149 14.0727 40.0695 14.81 39.3789 15.342C38.6975 15.8647 37.8949 16.126 36.9709 16.126ZM36.9709 15.132C37.6149 15.132 38.1422 14.9547 38.5529 14.6C38.9635 14.236 39.1689 13.732 39.1689 13.088C39.1689 12.4627 38.9589 11.9773 38.5389 11.632C38.1282 11.2773 37.6149 11.1 36.9989 11.1C36.3642 11.1 35.8322 11.2773 35.4029 11.632C34.9735 11.9773 34.7589 12.472 34.7589 13.116C34.7589 13.7413 34.9735 14.236 35.4029 14.6C35.8322 14.9547 36.3549 15.132 36.9709 15.132ZM37.0129 10.134C37.5542 10.134 37.9882 9.98467 38.3149 9.686C38.6415 9.38733 38.8049 8.97667 38.8049 8.454C38.8049 7.978 38.6322 7.586 38.2869 7.278C37.9415 6.97 37.5029 6.816 36.9709 6.816C36.4295 6.816 35.9862 6.96533 35.6409 7.264C35.2955 7.56267 35.1229 7.96867 35.1229 8.482C35.1229 8.986 35.3049 9.38733 35.6689 9.686C36.0329 9.98467 36.4809 10.134 37.0129 10.134ZM46.9968 16.126C45.4942 16.126 44.3088 15.6593 43.4408 14.726C42.5822 13.7833 42.1528 12.5607 42.1528 11.058V10.946C42.1528 9.47133 42.6008 8.25333 43.4968 7.292C44.4022 6.32133 45.5688 5.836 46.9968 5.836C48.0608 5.836 48.9708 6.102 49.7268 6.634C50.4828 7.15667 50.9308 7.95 51.0708 9.014H49.8528C49.5915 7.53933 48.6488 6.802 47.0248 6.802C45.8862 6.802 44.9995 7.18 44.3648 7.936C43.7302 8.68267 43.4128 9.68133 43.4128 10.932V11.044C43.4128 12.3133 43.7208 13.3167 44.3368 14.054C44.9528 14.782 45.8395 15.146 46.9968 15.146C48.0328 15.146 48.8122 14.852 49.3348 14.264C49.8575 13.676 50.1282 12.906 50.1468 11.954H47.2208V10.946H51.3368V11.688C51.3368 13.1067 50.9402 14.2033 50.1468 14.978C49.3628 15.7433 48.3128 16.126 46.9968 16.126ZM53.553 5.99H56.563C58.7097 5.99 59.783 6.85333 59.783 8.58V8.636C59.783 9.7 59.279 10.4047 58.271 10.75C58.9897 10.918 59.503 11.1933 59.811 11.576C60.119 11.9587 60.273 12.4813 60.273 13.144V13.2C60.273 14.124 59.979 14.824 59.391 15.3C58.8123 15.7667 58.0097 16 56.983 16H53.553V5.99ZM56.955 15.048C58.3737 15.048 59.083 14.4273 59.083 13.186V13.13C59.083 12.5047 58.901 12.0473 58.537 11.758C58.173 11.4593 57.5897 11.31 56.787 11.31H54.743V15.048H56.955ZM56.563 10.358C57.291 10.358 57.809 10.2227 58.117 9.952C58.4343 9.672 58.593 9.21933 58.593 8.594V8.538C58.593 7.978 58.425 7.572 58.089 7.32C57.7623 7.068 57.2443 6.942 56.535 6.942H54.743V10.358H56.563Z" fill="#171F26"/>
<path d="M81.34 16.126C80.7707 16.126 80.2293 16.0233 79.716 15.818C79.2027 15.6033 78.7687 15.2627 78.414 14.796C78.0593 14.3293 77.882 13.7833 77.882 13.158C77.882 12.514 78.0547 11.9727 78.4 11.534C78.7453 11.0953 79.2027 10.7733 79.772 10.568C78.764 10.1667 78.26 9.46667 78.26 8.468C78.26 7.70267 78.568 7.07733 79.184 6.592C79.8093 6.10667 80.528 5.864 81.34 5.864C82.152 5.864 82.866 6.10667 83.482 6.592C84.098 7.068 84.406 7.684 84.406 8.44C84.406 9.40133 83.8927 10.106 82.866 10.554C84.1447 11.03 84.784 11.8887 84.784 13.13C84.784 14.0727 84.4387 14.81 83.748 15.342C83.0667 15.8647 82.264 16.126 81.34 16.126ZM81.34 15.132C81.984 15.132 82.5113 14.9547 82.922 14.6C83.3327 14.236 83.538 13.732 83.538 13.088C83.538 12.4627 83.328 11.9773 82.908 11.632C82.4973 11.2773 81.984 11.1 81.368 11.1C80.7333 11.1 80.2013 11.2773 79.772 11.632C79.3427 11.9773 79.128 12.472 79.128 13.116C79.128 13.7413 79.3427 14.236 79.772 14.6C80.2013 14.9547 80.724 15.132 81.34 15.132ZM81.382 10.134C81.9233 10.134 82.3573 9.98467 82.684 9.686C83.0107 9.38733 83.174 8.97667 83.174 8.454C83.174 7.978 83.0013 7.586 82.656 7.278C82.3107 6.97 81.872 6.816 81.34 6.816C80.7987 6.816 80.3553 6.96533 80.01 7.264C79.6647 7.56267 79.492 7.96867 79.492 8.482C79.492 8.986 79.674 9.38733 80.038 9.686C80.402 9.98467 80.85 10.134 81.382 10.134ZM89.4861 5.136H90.5501L86.4761 18.072H85.4121L89.4861 5.136ZM90.8441 15.72L94.8201 11.534C95.7815 10.5167 96.2621 9.55067 96.2621 8.636C96.2621 8.076 96.1035 7.63733 95.7861 7.32C95.4781 7.00267 95.0395 6.844 94.4701 6.844C93.2568 6.844 92.5521 7.586 92.3561 9.07H91.2221C91.2968 8.08067 91.6188 7.30133 92.1881 6.732C92.7668 6.15333 93.5275 5.864 94.4701 5.864C95.3941 5.864 96.1268 6.12067 96.6681 6.634C97.2188 7.138 97.4941 7.81933 97.4941 8.678C97.4941 9.77933 96.8221 10.9927 95.4781 12.318L92.7201 15.006H97.5501V16H90.8441V15.72ZM102.442 16.126C101.406 16.126 100.612 15.874 100.062 15.37C99.5112 14.8567 99.1938 14.166 99.1098 13.298H100.272C100.384 13.9047 100.594 14.3667 100.902 14.684C101.21 14.992 101.718 15.146 102.428 15.146C103.109 15.146 103.646 14.9313 104.038 14.502C104.43 14.0727 104.626 13.48 104.626 12.724C104.626 12.0147 104.434 11.45 104.052 11.03C103.678 10.6007 103.17 10.386 102.526 10.386C101.966 10.386 101.504 10.4653 101.14 10.624C100.776 10.7827 100.449 11.0253 100.16 11.352H99.7118V5.99H105.34V7.04H100.72V10.092C101.214 9.63467 101.896 9.406 102.764 9.406C103.678 9.406 104.425 9.70933 105.004 10.316C105.582 10.9133 105.872 11.716 105.872 12.724C105.872 13.76 105.545 14.586 104.892 15.202C104.238 15.818 103.422 16.126 102.442 16.126ZM111.19 16.126C108.791 16.126 107.592 14.6093 107.592 11.576V11.338C107.592 9.58333 107.947 8.23467 108.656 7.292C109.375 6.34 110.327 5.864 111.512 5.864C112.315 5.864 112.968 6.06933 113.472 6.48C113.985 6.89067 114.307 7.49267 114.438 8.286H113.276C113.164 7.80067 112.963 7.44133 112.674 7.208C112.385 6.97467 111.969 6.858 111.428 6.858C110.653 6.858 110.028 7.20333 109.552 7.894C109.076 8.58467 108.824 9.574 108.796 10.862C109.337 9.95667 110.196 9.504 111.372 9.504C112.352 9.504 113.141 9.81667 113.738 10.442C114.345 11.058 114.648 11.8373 114.648 12.78C114.648 13.788 114.335 14.6 113.71 15.216C113.085 15.8227 112.245 16.126 111.19 16.126ZM111.19 15.174C111.843 15.174 112.375 14.9593 112.786 14.53C113.197 14.1007 113.402 13.536 113.402 12.836C113.402 12.108 113.201 11.5293 112.8 11.1C112.399 10.6707 111.857 10.456 111.176 10.456C110.504 10.456 109.953 10.6613 109.524 11.072C109.095 11.4827 108.88 12.0147 108.88 12.668C108.88 13.4613 109.09 14.0773 109.51 14.516C109.939 14.9547 110.499 15.174 111.19 15.174ZM121.198 16.126C119.695 16.126 118.51 15.6593 117.642 14.726C116.783 13.7833 116.354 12.5607 116.354 11.058V10.946C116.354 9.47133 116.802 8.25333 117.698 7.292C118.603 6.32133 119.77 5.836 121.198 5.836C122.262 5.836 123.172 6.102 123.928 6.634C124.684 7.15667 125.132 7.95 125.272 9.014H124.054C123.793 7.53933 122.85 6.802 121.226 6.802C120.087 6.802 119.201 7.18 118.566 7.936C117.931 8.68267 117.614 9.68133 117.614 10.932V11.044C117.614 12.3133 117.922 13.3167 118.538 14.054C119.154 14.782 120.041 15.146 121.198 15.146C122.234 15.146 123.013 14.852 123.536 14.264C124.059 13.676 124.329 12.906 124.348 11.954H121.422V10.946H125.538V11.688C125.538 13.1067 125.141 14.2033 124.348 14.978C123.564 15.7433 122.514 16.126 121.198 16.126ZM127.754 5.99H130.764C132.911 5.99 133.984 6.85333 133.984 8.58V8.636C133.984 9.7 133.48 10.4047 132.472 10.75C133.191 10.918 133.704 11.1933 134.012 11.576C134.32 11.9587 134.474 12.4813 134.474 13.144V13.2C134.474 14.124 134.18 14.824 133.592 15.3C133.013 15.7667 132.211 16 131.184 16H127.754V5.99ZM131.156 15.048C132.575 15.048 133.284 14.4273 133.284 13.186V13.13C133.284 12.5047 133.102 12.0473 132.738 11.758C132.374 11.4593 131.791 11.31 130.988 11.31H128.944V15.048H131.156ZM130.764 10.358C131.492 10.358 132.01 10.2227 132.318 9.952C132.635 9.672 132.794 9.21933 132.794 8.594V8.538C132.794 7.978 132.626 7.572 132.29 7.32C131.963 7.068 131.445 6.942 130.736 6.942H128.944V10.358H130.764Z" fill="#8E969E"/>
<rect y="45" width="18" height="18" rx="5" fill="#F23D5B"/>
<rect x="28.5" y="45.5" width="17" height="17" rx="4.5" fill="white" stroke="#DAE0E6"/>
<rect x="52" y="41" width="26" height="26" rx="9" fill="white" stroke="#DAE0E6" stroke-width="2"/>
<rect x="56" y="45" width="18" height="18" rx="5" fill="#171F26"/>
</svg>
