<svg width="120" height="120" viewBox="0 0 120 120" fill="none" xmlns="http://www.w3.org/2000/svg">
<path d="M79.9971 65.002H69.9971C69.9971 70.5248 65.5199 75.002 59.9971 75.002C54.4742 75.002 49.9971 70.5248 49.9971 65.002H39.9971C39.9971 76.0477 48.9514 85.002 59.9971 85.002C71.0428 85.002 79.9971 76.0477 79.9971 65.002Z" fill="#DAE0E6"/>
<path d="M49.9971 50.002C49.9971 52.7634 47.7585 55.002 44.9971 55.002C42.2356 55.002 39.9971 52.7634 39.9971 50.002C39.9971 47.2405 42.2356 45.002 44.9971 45.002C47.7585 45.002 49.9971 47.2405 49.9971 50.002Z" fill="#DAE0E6"/>
<path d="M74.9971 55.002C77.7585 55.002 79.9971 52.7634 79.9971 50.002C79.9971 47.2405 77.7585 45.002 74.9971 45.002C72.2356 45.002 69.9971 47.2405 69.9971 50.002C69.9971 52.7634 72.2356 55.002 74.9971 55.002Z" fill="#DAE0E6"/>
<path fill-rule="evenodd" clip-rule="evenodd" d="M109.997 60.002C109.997 87.6162 87.6113 110.002 59.9971 110.002C32.3828 110.002 9.99707 87.6162 9.99707 60.002C9.99707 32.3877 32.3828 10.002 59.9971 10.002C87.6113 10.002 109.997 32.3877 109.997 60.002ZM99.9971 60.002C99.9971 82.0933 82.0885 100.002 59.9971 100.002C37.9057 100.002 19.9971 82.0933 19.9971 60.002C19.9971 37.9106 37.9057 20.002 59.9971 20.002C82.0885 20.002 99.9971 37.9106 99.9971 60.002Z" fill="#DAE0E6"/>
</svg>
