<svg width="20" height="20" viewBox="0 0 20 20" fill="none" xmlns="http://www.w3.org/2000/svg">
<path fill-rule="evenodd" clip-rule="evenodd" d="M11.6663 2.49967V2.74124C14.0759 3.45836 15.833 5.69049 15.833 8.33301V14.1663H16.6663V15.833H3.33301V14.1663H4.16634V8.33301C4.16634 5.69049 5.92343 3.45836 8.33301 2.74124V2.49967C8.33301 1.5792 9.0792 0.833008 9.99967 0.833008C10.9201 0.833008 11.6663 1.5792 11.6663 2.49967ZM5.83301 14.1663H14.1663V8.33301C14.1663 6.03182 12.3009 4.16634 9.99967 4.16634C7.69849 4.16634 5.83301 6.03182 5.83301 8.33301V14.1663ZM11.6663 17.4997V16.6663H8.33301V17.4997C8.33301 18.4201 9.0792 19.1663 9.99967 19.1663C10.9201 19.1663 11.6663 18.4201 11.6663 17.4997Z" fill="#DAE0E6"/>
</svg>
