<svg width="330" height="30" viewBox="0 0 330 30" fill="none" xmlns="http://www.w3.org/2000/svg">
<rect x="295" width="35" height="30" rx="5" fill="#F2F5F7"/>
<path d="M309.63 21H308.399V13.1592C308.103 13.4417 307.714 13.7243 307.23 14.0068C306.752 14.2894 306.321 14.5013 305.938 14.6426V13.4531C306.627 13.1296 307.228 12.7376 307.743 12.2773C308.258 11.8171 308.623 11.3704 308.837 10.9375H309.63V21ZM319.255 19.8174V21H312.631C312.622 20.7038 312.67 20.4189 312.774 20.1455C312.943 19.6943 313.212 19.25 313.581 18.8125C313.955 18.375 314.493 17.8691 315.194 17.2949C316.284 16.4017 317.02 15.6953 317.402 15.1758C317.785 14.6517 317.977 14.1572 317.977 13.6924C317.977 13.2048 317.801 12.7946 317.45 12.4619C317.104 12.1247 316.65 11.9561 316.09 11.9561C315.497 11.9561 315.023 12.1338 314.668 12.4893C314.312 12.8447 314.132 13.3369 314.128 13.9658L312.863 13.8359C312.95 12.8926 313.276 12.1748 313.841 11.6826C314.406 11.1859 315.165 10.9375 316.117 10.9375C317.079 10.9375 317.84 11.2041 318.4 11.7373C318.961 12.2705 319.241 12.9313 319.241 13.7197C319.241 14.1208 319.159 14.515 318.995 14.9023C318.831 15.2897 318.558 15.6976 318.175 16.126C317.797 16.5544 317.165 17.1423 316.281 17.8896C315.543 18.5094 315.069 18.931 314.859 19.1543C314.65 19.373 314.477 19.5941 314.34 19.8174H319.255Z" fill="#FFAE00"/>
<path d="M41.1006 10.9785H42.4268V15.3672C43.0329 15.3672 43.459 15.251 43.7051 15.0186C43.9512 14.7816 44.2656 14.2165 44.6484 13.3232C44.9264 12.667 45.1543 12.2044 45.332 11.9355C45.5143 11.6621 45.7718 11.4342 46.1045 11.252C46.4372 11.0651 46.804 10.9717 47.2051 10.9717C47.7155 10.9717 47.9844 10.9762 48.0117 10.9854V12.1338C47.9661 12.1338 47.8773 12.1315 47.7451 12.127C47.5993 12.1224 47.5104 12.1201 47.4785 12.1201C47.0547 12.1201 46.7402 12.2227 46.5352 12.4277C46.3255 12.6328 46.0863 13.0703 45.8174 13.7402C45.4801 14.5879 45.1953 15.1234 44.9629 15.3467C44.7305 15.5654 44.4525 15.7409 44.1289 15.873C44.776 16.0508 45.4141 16.6478 46.043 17.6641L48.1074 21H46.46L44.7852 18.2793C44.3249 17.5273 43.9398 17.0124 43.6299 16.7344C43.32 16.4518 42.9189 16.3105 42.4268 16.3105V21H41.1006V10.9785ZM48.627 17.3701C48.627 16.0257 49.0007 15.0299 49.748 14.3828C50.3724 13.8451 51.1335 13.5762 52.0312 13.5762C53.0293 13.5762 53.8451 13.9043 54.4785 14.5605C55.112 15.2122 55.4287 16.1146 55.4287 17.2676C55.4287 18.2018 55.2874 18.9378 55.0049 19.4756C54.7269 20.0088 54.319 20.4235 53.7812 20.7197C53.248 21.016 52.6647 21.1641 52.0312 21.1641C51.015 21.1641 50.1924 20.8382 49.5635 20.1865C48.9391 19.5348 48.627 18.596 48.627 17.3701ZM49.8916 17.3701C49.8916 18.2998 50.0944 18.9971 50.5 19.4619C50.9056 19.9222 51.416 20.1523 52.0312 20.1523C52.6419 20.1523 53.1501 19.9199 53.5557 19.4551C53.9613 18.9902 54.1641 18.2816 54.1641 17.3291C54.1641 16.4313 53.959 15.7523 53.5488 15.292C53.1432 14.8271 52.6374 14.5947 52.0312 14.5947C51.416 14.5947 50.9056 14.8249 50.5 15.2852C50.0944 15.7454 49.8916 16.4404 49.8916 17.3701ZM56.8779 23.7822V13.7402H57.999V14.6836C58.2633 14.3145 58.5618 14.0387 58.8945 13.8564C59.2272 13.6696 59.6305 13.5762 60.1045 13.5762C60.7243 13.5762 61.2712 13.7357 61.7451 14.0547C62.2191 14.3737 62.5768 14.8249 62.8184 15.4082C63.0599 15.987 63.1807 16.6227 63.1807 17.3154C63.1807 18.0583 63.0462 18.7282 62.7773 19.3252C62.513 19.9176 62.1257 20.3734 61.6152 20.6924C61.1094 21.0068 60.5762 21.1641 60.0156 21.1641C59.6055 21.1641 59.2363 21.0775 58.9082 20.9043C58.5846 20.7311 58.318 20.5124 58.1084 20.248V23.7822H56.8779ZM57.9922 17.4111C57.9922 18.3454 58.1813 19.0358 58.5596 19.4824C58.9378 19.929 59.3958 20.1523 59.9336 20.1523C60.4805 20.1523 60.9476 19.9222 61.335 19.4619C61.7269 18.9971 61.9229 18.2793 61.9229 17.3086C61.9229 16.3835 61.7314 15.6908 61.3486 15.2305C60.9704 14.7702 60.5169 14.54 59.9883 14.54C59.4642 14.54 58.9993 14.7861 58.5938 15.2783C58.1927 15.766 57.9922 16.4769 57.9922 17.4111ZM66.1133 17.7188V16.7549C66.6328 16.7503 66.986 16.7298 67.1729 16.6934C67.3643 16.6569 67.5443 16.5475 67.7129 16.3652C67.8815 16.1829 67.9658 15.9551 67.9658 15.6816C67.9658 15.349 67.8542 15.0846 67.6309 14.8887C67.4121 14.6882 67.1273 14.5879 66.7764 14.5879C66.0837 14.5879 65.5983 14.9958 65.3203 15.8115L64.1514 15.6201C64.516 14.2575 65.3955 13.5762 66.79 13.5762C67.5648 13.5762 68.1709 13.7881 68.6084 14.2119C69.0505 14.6357 69.2715 15.1416 69.2715 15.7295C69.2715 16.3219 68.9844 16.7936 68.4102 17.1445C68.7747 17.3405 69.0482 17.5911 69.2305 17.8965C69.4128 18.1973 69.5039 18.555 69.5039 18.9697C69.5039 19.6214 69.2669 20.1501 68.793 20.5557C68.319 20.9613 67.6559 21.1641 66.8037 21.1641C65.1494 21.1641 64.1901 20.4281 63.9258 18.9561L65.0811 18.71C65.1859 19.1748 65.3978 19.5348 65.7168 19.79C66.0404 20.0452 66.4095 20.1729 66.8242 20.1729C67.2389 20.1729 67.583 20.0566 67.8564 19.8242C68.1344 19.5872 68.2734 19.2865 68.2734 18.9219C68.2734 18.6393 68.1868 18.3932 68.0137 18.1836C67.8405 17.974 67.6559 17.8441 67.46 17.7939C67.264 17.7393 66.9085 17.7119 66.3936 17.7119C66.3525 17.7119 66.2591 17.7142 66.1133 17.7188ZM70.9326 13.7402H72.1631V19.2773L75.5742 13.7402H76.9004V21H75.6699V15.4971L72.2588 21H70.9326V13.7402ZM78.7598 13.7402H79.9902V16.7617H83.4014V13.7402H84.6318V21H83.4014V17.7803H79.9902V21H78.7598V13.7402ZM91.2285 20.1045C90.7728 20.4919 90.333 20.7653 89.9092 20.9248C89.4899 21.0843 89.0387 21.1641 88.5557 21.1641C87.7581 21.1641 87.1452 20.9704 86.7168 20.583C86.2884 20.1911 86.0742 19.6921 86.0742 19.0859C86.0742 18.7305 86.154 18.4069 86.3135 18.1152C86.4775 17.819 86.6895 17.582 86.9492 17.4043C87.2135 17.2266 87.5098 17.0921 87.8379 17.001C88.0794 16.9372 88.444 16.8757 88.9316 16.8164C89.9251 16.6979 90.6566 16.5566 91.126 16.3926C91.1305 16.224 91.1328 16.1169 91.1328 16.0713C91.1328 15.57 91.0166 15.2168 90.7842 15.0117C90.4697 14.7337 90.0026 14.5947 89.3828 14.5947C88.804 14.5947 88.3757 14.6973 88.0977 14.9023C87.8242 15.1029 87.6214 15.4606 87.4893 15.9756L86.2861 15.8115C86.3955 15.2965 86.5755 14.8818 86.8262 14.5674C87.0768 14.2484 87.4391 14.0046 87.9131 13.8359C88.387 13.6628 88.9362 13.5762 89.5605 13.5762C90.1803 13.5762 90.6839 13.6491 91.0713 13.7949C91.4587 13.9408 91.7435 14.1253 91.9258 14.3486C92.1081 14.5674 92.2357 14.8454 92.3086 15.1826C92.3496 15.3923 92.3701 15.7705 92.3701 16.3174V17.958C92.3701 19.1019 92.3952 19.8265 92.4453 20.1318C92.5 20.4326 92.6048 20.722 92.7598 21H91.4746C91.347 20.7448 91.265 20.4463 91.2285 20.1045ZM91.126 17.3564C90.6794 17.5387 90.0094 17.6937 89.1162 17.8213C88.6104 17.8942 88.2526 17.9762 88.043 18.0674C87.8333 18.1585 87.6715 18.293 87.5576 18.4707C87.4437 18.6439 87.3867 18.8376 87.3867 19.0518C87.3867 19.3799 87.5098 19.6533 87.7559 19.8721C88.0065 20.0908 88.3711 20.2002 88.8496 20.2002C89.3236 20.2002 89.7451 20.0977 90.1143 19.8926C90.4834 19.6829 90.7546 19.3981 90.9277 19.0381C91.0599 18.7601 91.126 18.3499 91.126 17.8076V17.3564Z" fill="#171F26"/>
<path d="M15.8499 10.7365L6.65652 9.58714C6.17082 9.52631 5.69576 9.62384 5.27069 9.83453L5.07528 8.1697C4.92827 6.93284 3.87837 6 2.63432 6H0.818182C0.365945 6 0 6.36634 0 6.81818C0 7.27002 0.365945 7.63636 0.818182 7.63636H2.63432C3.0506 7.63636 3.40137 7.94877 3.45011 8.36226L4.7429 19.3758C4.87413 20.4801 5.72657 21.337 6.7929 21.509C6.63884 21.7585 6.54545 22.0495 6.54545 22.3636C6.54545 23.2661 7.27974 24 8.18182 24C9.0839 24 9.81818 23.2661 9.81818 22.3636C9.81818 22.0643 9.73149 21.7871 9.59056 21.5455H13.3185C13.1776 21.7871 13.0909 22.0643 13.0909 22.3636C13.0909 23.2661 13.8252 24 14.7273 24C15.6293 24 16.3636 23.2661 16.3636 22.3636C16.3636 22.0643 16.2769 21.7871 16.136 21.5455H17.1818C17.6341 21.5455 18 21.1791 18 20.7273C18 20.2754 17.6341 19.9091 17.1818 19.9091H7.18386C6.76758 19.9091 6.41681 19.5967 6.36808 19.1844L6.25312 18.205C6.42945 18.2453 6.61022 18.2727 6.79794 18.2727H15.5455C16.899 18.2727 18 17.1717 18 15.8182V13.1719C18 11.9366 17.0756 10.8895 15.8499 10.7365ZM16.3636 15.8182C16.3636 16.2692 15.9969 16.6364 15.5455 16.6364H6.79794C6.38326 16.6364 6.03329 16.3256 5.98535 15.9137L5.53951 12.118C5.50994 11.8667 5.59624 11.6202 5.77601 11.442C5.93102 11.2882 6.13556 11.2043 6.3505 11.2043C6.38485 11.2043 6.41921 11.2063 6.45357 11.2107L15.6469 12.3601C16.0552 12.4112 16.3636 12.76 16.3636 13.1719V15.8182Z" fill="#DAE0E6"/>
</svg>
