<svg width="330" height="30" viewBox="0 0 330 30" fill="none" xmlns="http://www.w3.org/2000/svg">
<rect x="300" width="30" height="30" rx="5" fill="#F2F5F7"/>
<path d="M319.255 19.8174V21H312.631C312.622 20.7038 312.67 20.4189 312.774 20.1455C312.943 19.6943 313.212 19.25 313.581 18.8125C313.955 18.375 314.493 17.8691 315.194 17.2949C316.284 16.4017 317.02 15.6953 317.402 15.1758C317.785 14.6517 317.977 14.1572 317.977 13.6924C317.977 13.2048 317.801 12.7946 317.45 12.4619C317.104 12.1247 316.65 11.9561 316.09 11.9561C315.497 11.9561 315.023 12.1338 314.668 12.4893C314.312 12.8447 314.132 13.3369 314.128 13.9658L312.863 13.8359C312.95 12.8926 313.276 12.1748 313.841 11.6826C314.406 11.1859 315.165 10.9375 316.117 10.9375C317.079 10.9375 317.84 11.2041 318.4 11.7373C318.961 12.2705 319.241 12.9313 319.241 13.7197C319.241 14.1208 319.159 14.515 318.995 14.9023C318.831 15.2897 318.558 15.6976 318.175 16.126C317.797 16.5544 317.165 17.1423 316.281 17.8896C315.543 18.5094 315.069 18.931 314.859 19.1543C314.65 19.373 314.477 19.5941 314.34 19.8174H319.255Z" fill="#FFAE00"/>
<path d="M41.1006 10.9785H42.3037V18.915L47.6357 10.9785H48.9688V21H47.7656V13.084L42.4268 21H41.1006V10.9785ZM52.5918 17.7188V16.7549C53.1113 16.7503 53.4645 16.7298 53.6514 16.6934C53.8428 16.6569 54.0228 16.5475 54.1914 16.3652C54.36 16.1829 54.4443 15.9551 54.4443 15.6816C54.4443 15.349 54.3327 15.0846 54.1094 14.8887C53.8906 14.6882 53.6058 14.5879 53.2549 14.5879C52.5622 14.5879 52.0768 14.9958 51.7988 15.8115L50.6299 15.6201C50.9945 14.2575 51.874 13.5762 53.2686 13.5762C54.0433 13.5762 54.6494 13.7881 55.0869 14.2119C55.529 14.6357 55.75 15.1416 55.75 15.7295C55.75 16.3219 55.4629 16.7936 54.8887 17.1445C55.2533 17.3405 55.5267 17.5911 55.709 17.8965C55.8913 18.1973 55.9824 18.555 55.9824 18.9697C55.9824 19.6214 55.7454 20.1501 55.2715 20.5557C54.7975 20.9613 54.1344 21.1641 53.2822 21.1641C51.6279 21.1641 50.6686 20.4281 50.4043 18.9561L51.5596 18.71C51.6644 19.1748 51.8763 19.5348 52.1953 19.79C52.5189 20.0452 52.888 20.1729 53.3027 20.1729C53.7174 20.1729 54.0615 20.0566 54.335 19.8242C54.613 19.5872 54.752 19.2865 54.752 18.9219C54.752 18.6393 54.6654 18.3932 54.4922 18.1836C54.319 17.974 54.1344 17.8441 53.9385 17.7939C53.7425 17.7393 53.387 17.7119 52.8721 17.7119C52.8311 17.7119 52.7376 17.7142 52.5918 17.7188ZM62.5654 10.7393L63.6523 10.7529C63.6022 11.2406 63.4928 11.5801 63.3242 11.7715C63.1602 11.9629 62.946 12.0859 62.6816 12.1406C62.4219 12.1953 61.9092 12.2227 61.1436 12.2227C60.1273 12.2227 59.4346 12.3206 59.0654 12.5166C58.6963 12.7126 58.4297 13.027 58.2656 13.46C58.1061 13.8883 58.0173 14.4421 57.999 15.1211C58.3089 14.6608 58.6712 14.3167 59.0859 14.0889C59.5007 13.8564 59.9678 13.7402 60.4873 13.7402C61.4398 13.7402 62.2282 14.0684 62.8525 14.7246C63.4769 15.3763 63.7891 16.2604 63.7891 17.377C63.7891 18.2246 63.6318 18.9196 63.3174 19.4619C63.0029 20.0042 62.6292 20.4235 62.1963 20.7197C61.7679 21.016 61.1823 21.1641 60.4395 21.1641C59.5781 21.1641 58.9082 20.9681 58.4297 20.5762C57.9512 20.1797 57.5843 19.6738 57.3291 19.0586C57.0739 18.4434 56.9463 17.3724 56.9463 15.8457C56.9463 13.9271 57.2699 12.6351 57.917 11.9697C58.5687 11.3044 59.569 10.9717 60.918 10.9717C61.7565 10.9717 62.2327 10.958 62.3467 10.9307C62.4606 10.9033 62.5335 10.8395 62.5654 10.7393ZM62.5039 17.3428C62.5039 16.5863 62.3239 15.9665 61.9639 15.4834C61.6084 15.0003 61.1048 14.7588 60.4531 14.7588C59.7741 14.7588 59.25 15.014 58.8809 15.5244C58.5117 16.0348 58.3271 16.7161 58.3271 17.5684C58.3271 18.4115 58.5299 19.0563 58.9355 19.5029C59.3457 19.9495 59.8493 20.1729 60.4463 20.1729C61.057 20.1729 61.5514 19.9154 61.9297 19.4004C62.3125 18.8809 62.5039 18.195 62.5039 17.3428ZM65.2725 23.7822V13.7402H66.3936V14.6836C66.6579 14.3145 66.9564 14.0387 67.2891 13.8564C67.6217 13.6696 68.0251 13.5762 68.499 13.5762C69.1188 13.5762 69.6657 13.7357 70.1396 14.0547C70.6136 14.3737 70.9714 14.8249 71.2129 15.4082C71.4544 15.987 71.5752 16.6227 71.5752 17.3154C71.5752 18.0583 71.4408 18.7282 71.1719 19.3252C70.9076 19.9176 70.5202 20.3734 70.0098 20.6924C69.5039 21.0068 68.9707 21.1641 68.4102 21.1641C68 21.1641 67.6309 21.0775 67.3027 20.9043C66.9792 20.7311 66.7126 20.5124 66.5029 20.248V23.7822H65.2725ZM66.3867 17.4111C66.3867 18.3454 66.5758 19.0358 66.9541 19.4824C67.3324 19.929 67.7904 20.1523 68.3281 20.1523C68.875 20.1523 69.3421 19.9222 69.7295 19.4619C70.1214 18.9971 70.3174 18.2793 70.3174 17.3086C70.3174 16.3835 70.126 15.6908 69.7432 15.2305C69.3649 14.7702 68.9115 14.54 68.3828 14.54C67.8587 14.54 67.3939 14.7861 66.9883 15.2783C66.5872 15.766 66.3867 16.4769 66.3867 17.4111ZM77.8027 20.1045C77.347 20.4919 76.9072 20.7653 76.4834 20.9248C76.0641 21.0843 75.613 21.1641 75.1299 21.1641C74.3324 21.1641 73.7194 20.9704 73.291 20.583C72.8626 20.1911 72.6484 19.6921 72.6484 19.0859C72.6484 18.7305 72.7282 18.4069 72.8877 18.1152C73.0518 17.819 73.2637 17.582 73.5234 17.4043C73.7878 17.2266 74.084 17.0921 74.4121 17.001C74.6536 16.9372 75.0182 16.8757 75.5059 16.8164C76.4993 16.6979 77.2308 16.5566 77.7002 16.3926C77.7048 16.224 77.707 16.1169 77.707 16.0713C77.707 15.57 77.5908 15.2168 77.3584 15.0117C77.0439 14.7337 76.5768 14.5947 75.957 14.5947C75.3783 14.5947 74.9499 14.6973 74.6719 14.9023C74.3984 15.1029 74.1956 15.4606 74.0635 15.9756L72.8604 15.8115C72.9697 15.2965 73.1497 14.8818 73.4004 14.5674C73.651 14.2484 74.0133 14.0046 74.4873 13.8359C74.9613 13.6628 75.5104 13.5762 76.1348 13.5762C76.7546 13.5762 77.2581 13.6491 77.6455 13.7949C78.0329 13.9408 78.3177 14.1253 78.5 14.3486C78.6823 14.5674 78.8099 14.8454 78.8828 15.1826C78.9238 15.3923 78.9443 15.7705 78.9443 16.3174V17.958C78.9443 19.1019 78.9694 19.8265 79.0195 20.1318C79.0742 20.4326 79.179 20.722 79.334 21H78.0488C77.9212 20.7448 77.8392 20.4463 77.8027 20.1045ZM77.7002 17.3564C77.2536 17.5387 76.5837 17.6937 75.6904 17.8213C75.1846 17.8942 74.8268 17.9762 74.6172 18.0674C74.4076 18.1585 74.2458 18.293 74.1318 18.4707C74.0179 18.6439 73.9609 18.8376 73.9609 19.0518C73.9609 19.3799 74.084 19.6533 74.3301 19.8721C74.5807 20.0908 74.9453 20.2002 75.4238 20.2002C75.8978 20.2002 76.3193 20.0977 76.6885 19.8926C77.0576 19.6829 77.3288 19.3981 77.502 19.0381C77.6341 18.7601 77.7002 18.3499 77.7002 17.8076V17.3564ZM80.8652 13.7402H82.0957V16.7617H85.5068V13.7402H86.7373V21H85.5068V17.7803H82.0957V21H80.8652V13.7402ZM88.6035 13.7402H89.834V16.7617H93.2451V13.7402H94.4756V21H93.2451V17.7803H89.834V21H88.6035V13.7402ZM95.877 17.3701C95.877 16.0257 96.2507 15.0299 96.998 14.3828C97.6224 13.8451 98.3835 13.5762 99.2812 13.5762C100.279 13.5762 101.095 13.9043 101.729 14.5605C102.362 15.2122 102.679 16.1146 102.679 17.2676C102.679 18.2018 102.537 18.9378 102.255 19.4756C101.977 20.0088 101.569 20.4235 101.031 20.7197C100.498 21.016 99.9147 21.1641 99.2812 21.1641C98.265 21.1641 97.4424 20.8382 96.8135 20.1865C96.1891 19.5348 95.877 18.596 95.877 17.3701ZM97.1416 17.3701C97.1416 18.2998 97.3444 18.9971 97.75 19.4619C98.1556 19.9222 98.666 20.1523 99.2812 20.1523C99.8919 20.1523 100.4 19.9199 100.806 19.4551C101.211 18.9902 101.414 18.2816 101.414 17.3291C101.414 16.4313 101.209 15.7523 100.799 15.292C100.393 14.8271 99.8874 14.5947 99.2812 14.5947C98.666 14.5947 98.1556 14.8249 97.75 15.2852C97.3444 15.7454 97.1416 16.4404 97.1416 17.3701ZM109.098 18.6621L110.369 18.8193C110.169 19.5622 109.797 20.1387 109.255 20.5488C108.713 20.959 108.02 21.1641 107.177 21.1641C106.115 21.1641 105.272 20.8382 104.647 20.1865C104.028 19.5303 103.718 18.612 103.718 17.4316C103.718 16.2103 104.032 15.2624 104.661 14.5879C105.29 13.9134 106.106 13.5762 107.108 13.5762C108.079 13.5762 108.872 13.9066 109.487 14.5674C110.103 15.2282 110.41 16.1579 110.41 17.3564C110.41 17.4294 110.408 17.5387 110.403 17.6846H104.989C105.035 18.4821 105.26 19.0928 105.666 19.5166C106.072 19.9404 106.577 20.1523 107.184 20.1523C107.635 20.1523 108.02 20.0339 108.339 19.7969C108.658 19.5599 108.911 19.1816 109.098 18.6621ZM105.058 16.6729H109.111C109.057 16.0622 108.902 15.6042 108.646 15.2988C108.255 14.8249 107.746 14.5879 107.122 14.5879C106.557 14.5879 106.081 14.777 105.693 15.1553C105.311 15.5335 105.099 16.0394 105.058 16.6729Z" fill="#171F26"/>
<path fill-rule="evenodd" clip-rule="evenodd" d="M5.78125 8.71432C4.27849 8.71432 2.6875 10.0449 2.6875 12.1429C2.6875 14.5998 4.46546 16.8787 6.47279 18.6367C7.45225 19.4945 8.43582 20.184 9.17646 20.6597C9.50958 20.8736 9.79179 21.0431 10 21.1641C10.2082 21.0431 10.4904 20.8736 10.8235 20.6597C11.5642 20.184 12.5478 19.4945 13.5272 18.6367C15.5345 16.8787 17.3125 14.5998 17.3125 12.1429C17.3125 10.0449 15.7215 8.71432 14.2188 8.71432C12.6739 8.71432 11.2839 9.84098 10.8113 11.5213C10.7078 11.8893 10.3767 12.1429 10 12.1429C9.62328 12.1429 9.29221 11.8893 9.18872 11.5213C8.71614 9.84098 7.32609 8.71432 5.78125 8.71432ZM10 22.1431C9.61236 22.9045 9.61213 22.9044 9.61188 22.9042L9.60928 22.9028L9.60322 22.8996L9.58243 22.8885C9.56477 22.879 9.53958 22.8654 9.50736 22.8477C9.44294 22.8124 9.35036 22.7607 9.23365 22.6937C9.00033 22.5594 8.66992 22.3626 8.27472 22.1087C7.48605 21.6022 6.43057 20.8631 5.37096 19.9352C3.30016 18.1216 1 15.4005 1 12.1429C1 9.09808 3.34651 7 5.78125 7C7.52203 7 9.047 7.91603 10 9.30856C10.953 7.91603 12.4779 7 14.2188 7C16.6535 7 19 9.09808 19 12.1429C19 15.4005 16.6998 18.1216 14.629 19.9352C13.5694 20.8631 12.5139 21.6022 11.7253 22.1087C11.3301 22.3626 10.9997 22.5594 10.7663 22.6937C10.6496 22.7607 10.5571 22.8124 10.4926 22.8477C10.4604 22.8654 10.4352 22.879 10.4176 22.8885L10.3968 22.8996L10.3907 22.9028L10.3881 22.9042C10.3879 22.9044 10.3876 22.9045 10 22.1431ZM10 22.1431L10.3881 22.9042C10.145 23.0319 9.855 23.0319 9.61188 22.9042L10 22.1431Z" fill="#DAE0E6"/>
</svg>
