<svg width="10" height="10" viewBox="0 0 10 10" fill="none" xmlns="http://www.w3.org/2000/svg">
<path d="M1.92768 4.68784L5.48778 1.1278C5.57012 1.0454 5.68004 1 5.79724 1C5.91444 1 6.02436 1.0454 6.1067 1.1278L6.36888 1.38992C6.53948 1.56071 6.53948 1.8383 6.36888 2.00884L3.37937 4.99834L6.3722 7.99116C6.45454 8.07357 6.5 8.18342 6.5 8.30056C6.5 8.41783 6.45454 8.52768 6.3722 8.61015L6.11002 8.8722C6.02761 8.9546 5.91776 9 5.80056 9C5.68336 9 5.57344 8.9546 5.4911 8.8722L1.92768 5.30891C1.84514 5.22624 1.79981 5.11587 1.80007 4.99854C1.79981 4.88075 1.84514 4.77044 1.92768 4.68784Z" fill="#171F26"/>
</svg>
