<svg width="330" height="30" viewBox="0 0 330 30" fill="none" xmlns="http://www.w3.org/2000/svg">
<path d="M41.0391 21V10.9785H43.0352L45.4072 18.0742C45.626 18.735 45.7855 19.2295 45.8857 19.5576C45.9997 19.193 46.1774 18.6576 46.4189 17.9512L48.8184 10.9785H50.6025V21H49.3242V12.6123L46.4121 21H45.2158L42.3174 12.4688V21H41.0391ZM52.291 17.3701C52.291 16.0257 52.6647 15.0299 53.4121 14.3828C54.0365 13.8451 54.7975 13.5762 55.6953 13.5762C56.6934 13.5762 57.5091 13.9043 58.1426 14.5605C58.776 15.2122 59.0928 16.1146 59.0928 17.2676C59.0928 18.2018 58.9515 18.9378 58.6689 19.4756C58.391 20.0088 57.9831 20.4235 57.4453 20.7197C56.9121 21.016 56.3288 21.1641 55.6953 21.1641C54.679 21.1641 53.8564 20.8382 53.2275 20.1865C52.6032 19.5348 52.291 18.596 52.291 17.3701ZM53.5557 17.3701C53.5557 18.2998 53.7585 18.9971 54.1641 19.4619C54.5697 19.9222 55.0801 20.1523 55.6953 20.1523C56.306 20.1523 56.8141 19.9199 57.2197 19.4551C57.6253 18.9902 57.8281 18.2816 57.8281 17.3291C57.8281 16.4313 57.623 15.7523 57.2129 15.292C56.8073 14.8271 56.3014 14.5947 55.6953 14.5947C55.0801 14.5947 54.5697 14.8249 54.1641 15.2852C53.7585 15.7454 53.5557 16.4404 53.5557 17.3701ZM60.542 13.7402H61.7725V19.2773L65.1836 13.7402H66.5098V21H65.2793V15.4971L61.8682 21H60.542V13.7402ZM73.8652 17.7188V16.7549C74.3848 16.7503 74.738 16.7298 74.9248 16.6934C75.1162 16.6569 75.2962 16.5475 75.4648 16.3652C75.6335 16.1829 75.7178 15.9551 75.7178 15.6816C75.7178 15.349 75.6061 15.0846 75.3828 14.8887C75.1641 14.6882 74.8792 14.5879 74.5283 14.5879C73.8356 14.5879 73.3503 14.9958 73.0723 15.8115L71.9033 15.6201C72.2679 14.2575 73.1475 13.5762 74.542 13.5762C75.3167 13.5762 75.9229 13.7881 76.3604 14.2119C76.8024 14.6357 77.0234 15.1416 77.0234 15.7295C77.0234 16.3219 76.7363 16.7936 76.1621 17.1445C76.5267 17.3405 76.8001 17.5911 76.9824 17.8965C77.1647 18.1973 77.2559 18.555 77.2559 18.9697C77.2559 19.6214 77.0189 20.1501 76.5449 20.5557C76.071 20.9613 75.4079 21.1641 74.5557 21.1641C72.9014 21.1641 71.9421 20.4281 71.6777 18.9561L72.833 18.71C72.9378 19.1748 73.1497 19.5348 73.4688 19.79C73.7923 20.0452 74.1615 20.1729 74.5762 20.1729C74.9909 20.1729 75.335 20.0566 75.6084 19.8242C75.8864 19.5872 76.0254 19.2865 76.0254 18.9219C76.0254 18.6393 75.9388 18.3932 75.7656 18.1836C75.5924 17.974 75.4079 17.8441 75.2119 17.7939C75.016 17.7393 74.6605 17.7119 74.1455 17.7119C74.1045 17.7119 74.0111 17.7142 73.8652 17.7188ZM83.4219 20.1045C82.9661 20.4919 82.5264 20.7653 82.1025 20.9248C81.6833 21.0843 81.2321 21.1641 80.749 21.1641C79.9515 21.1641 79.3385 20.9704 78.9102 20.583C78.4818 20.1911 78.2676 19.6921 78.2676 19.0859C78.2676 18.7305 78.3473 18.4069 78.5068 18.1152C78.6709 17.819 78.8828 17.582 79.1426 17.4043C79.4069 17.2266 79.7031 17.0921 80.0312 17.001C80.2728 16.9372 80.6374 16.8757 81.125 16.8164C82.1185 16.6979 82.8499 16.5566 83.3193 16.3926C83.3239 16.224 83.3262 16.1169 83.3262 16.0713C83.3262 15.57 83.21 15.2168 82.9775 15.0117C82.6631 14.7337 82.196 14.5947 81.5762 14.5947C80.9974 14.5947 80.569 14.6973 80.291 14.9023C80.0176 15.1029 79.8148 15.4606 79.6826 15.9756L78.4795 15.8115C78.5889 15.2965 78.7689 14.8818 79.0195 14.5674C79.2702 14.2484 79.6325 14.0046 80.1064 13.8359C80.5804 13.6628 81.1296 13.5762 81.7539 13.5762C82.3737 13.5762 82.8773 13.6491 83.2646 13.7949C83.652 13.9408 83.9368 14.1253 84.1191 14.3486C84.3014 14.5674 84.429 14.8454 84.502 15.1826C84.543 15.3923 84.5635 15.7705 84.5635 16.3174V17.958C84.5635 19.1019 84.5885 19.8265 84.6387 20.1318C84.6934 20.4326 84.7982 20.722 84.9531 21H83.668C83.5404 20.7448 83.4583 20.4463 83.4219 20.1045ZM83.3193 17.3564C82.8727 17.5387 82.2028 17.6937 81.3096 17.8213C80.8037 17.8942 80.446 17.9762 80.2363 18.0674C80.0267 18.1585 79.8649 18.293 79.751 18.4707C79.637 18.6439 79.5801 18.8376 79.5801 19.0518C79.5801 19.3799 79.7031 19.6533 79.9492 19.8721C80.1999 20.0908 80.5645 20.2002 81.043 20.2002C81.5169 20.2002 81.9385 20.0977 82.3076 19.8926C82.6768 19.6829 82.9479 19.3981 83.1211 19.0381C83.2533 18.7601 83.3193 18.3499 83.3193 17.8076V17.3564ZM86.4707 13.7402H87.7012V16.8779C88.0931 16.8779 88.3665 16.8027 88.5215 16.6523C88.681 16.502 88.9134 16.0645 89.2188 15.3398C89.4603 14.7656 89.6562 14.3874 89.8066 14.2051C89.957 14.0228 90.1302 13.8997 90.3262 13.8359C90.5221 13.7721 90.8366 13.7402 91.2695 13.7402H91.5156V14.7588L91.1738 14.752C90.8503 14.752 90.6429 14.7998 90.5518 14.8955C90.4561 14.9958 90.3102 15.2943 90.1143 15.791C89.9274 16.265 89.7565 16.5931 89.6016 16.7754C89.4466 16.9577 89.2074 17.124 88.8838 17.2744C89.4124 17.4157 89.932 17.9079 90.4424 18.751L91.7891 21H90.4355L89.123 18.751C88.8542 18.2998 88.6195 18.0036 88.4189 17.8623C88.2184 17.7165 87.9792 17.6436 87.7012 17.6436V21H86.4707V13.7402ZM97.6543 20.1045C97.1986 20.4919 96.7588 20.7653 96.335 20.9248C95.9157 21.0843 95.4645 21.1641 94.9814 21.1641C94.1839 21.1641 93.571 20.9704 93.1426 20.583C92.7142 20.1911 92.5 19.6921 92.5 19.0859C92.5 18.7305 92.5798 18.4069 92.7393 18.1152C92.9033 17.819 93.1152 17.582 93.375 17.4043C93.6393 17.2266 93.9355 17.0921 94.2637 17.001C94.5052 16.9372 94.8698 16.8757 95.3574 16.8164C96.3509 16.6979 97.0824 16.5566 97.5518 16.3926C97.5563 16.224 97.5586 16.1169 97.5586 16.0713C97.5586 15.57 97.4424 15.2168 97.21 15.0117C96.8955 14.7337 96.4284 14.5947 95.8086 14.5947C95.2298 14.5947 94.8014 14.6973 94.5234 14.9023C94.25 15.1029 94.0472 15.4606 93.915 15.9756L92.7119 15.8115C92.8213 15.2965 93.0013 14.8818 93.252 14.5674C93.5026 14.2484 93.8649 14.0046 94.3389 13.8359C94.8128 13.6628 95.362 13.5762 95.9863 13.5762C96.6061 13.5762 97.1097 13.6491 97.4971 13.7949C97.8844 13.9408 98.1693 14.1253 98.3516 14.3486C98.5339 14.5674 98.6615 14.8454 98.7344 15.1826C98.7754 15.3923 98.7959 15.7705 98.7959 16.3174V17.958C98.7959 19.1019 98.821 19.8265 98.8711 20.1318C98.9258 20.4326 99.0306 20.722 99.1855 21H97.9004C97.7728 20.7448 97.6908 20.4463 97.6543 20.1045ZM97.5518 17.3564C97.1051 17.5387 96.4352 17.6937 95.542 17.8213C95.0361 17.8942 94.6784 17.9762 94.4688 18.0674C94.2591 18.1585 94.0973 18.293 93.9834 18.4707C93.8695 18.6439 93.8125 18.8376 93.8125 19.0518C93.8125 19.3799 93.9355 19.6533 94.1816 19.8721C94.4323 20.0908 94.7969 20.2002 95.2754 20.2002C95.7493 20.2002 96.1709 20.0977 96.54 19.8926C96.9092 19.6829 97.1803 19.3981 97.3535 19.0381C97.4857 18.7601 97.5518 18.3499 97.5518 17.8076V17.3564ZM102.152 17.7188V16.7549C102.672 16.7503 103.025 16.7298 103.212 16.6934C103.403 16.6569 103.583 16.5475 103.752 16.3652C103.921 16.1829 104.005 15.9551 104.005 15.6816C104.005 15.349 103.893 15.0846 103.67 14.8887C103.451 14.6882 103.166 14.5879 102.815 14.5879C102.123 14.5879 101.637 14.9958 101.359 15.8115L100.19 15.6201C100.555 14.2575 101.435 13.5762 102.829 13.5762C103.604 13.5762 104.21 13.7881 104.647 14.2119C105.09 14.6357 105.311 15.1416 105.311 15.7295C105.311 16.3219 105.023 16.7936 104.449 17.1445C104.814 17.3405 105.087 17.5911 105.27 17.8965C105.452 18.1973 105.543 18.555 105.543 18.9697C105.543 19.6214 105.306 20.1501 104.832 20.5557C104.358 20.9613 103.695 21.1641 102.843 21.1641C101.188 21.1641 100.229 20.4281 99.9648 18.9561L101.12 18.71C101.225 19.1748 101.437 19.5348 101.756 19.79C102.079 20.0452 102.449 20.1729 102.863 20.1729C103.278 20.1729 103.622 20.0566 103.896 19.8242C104.174 19.5872 104.312 19.2865 104.312 18.9219C104.312 18.6393 104.226 18.3932 104.053 18.1836C103.88 17.974 103.695 17.8441 103.499 17.7939C103.303 17.7393 102.948 17.7119 102.433 17.7119C102.392 17.7119 102.298 17.7142 102.152 17.7188ZM113.883 13.7402H115.113V21H113.883V13.7402ZM106.999 13.7402H108.229V16.5771H109.788C110.804 16.5771 111.586 16.7754 112.133 17.1719C112.684 17.5638 112.96 18.1061 112.96 18.7988C112.96 19.4049 112.73 19.9245 112.27 20.3574C111.814 20.7858 111.082 21 110.075 21H106.999V13.7402ZM108.229 19.9883H109.521C110.301 19.9883 110.857 19.8926 111.189 19.7012C111.522 19.5098 111.688 19.2113 111.688 18.8057C111.688 18.4912 111.565 18.2109 111.319 17.9648C111.073 17.7188 110.529 17.5957 109.686 17.5957H108.229V19.9883Z" fill="#171F26"/>
<rect x="300" width="30" height="30" rx="5" fill="#F2F5F7"/>
<path d="M316.732 21V18.6006H312.385V17.4727L316.958 10.9785H317.963V17.4727H319.316V18.6006H317.963V21H316.732ZM316.732 17.4727V12.9541L313.595 17.4727H316.732Z" fill="#FFAE00"/>
<path d="M16.667 8.33366V18.3337H18.3337V6.66699H6.66699V8.33366H16.667Z" fill="#DAE0E6"/>
<path fill-rule="evenodd" clip-rule="evenodd" d="M1.66699 11.667V23.3337H13.3337V11.667H1.66699ZM11.667 13.3337H3.33366V21.667H11.667V13.3337Z" fill="#DAE0E6"/>
<path d="M14.167 10.8337H4.16699V9.16699H15.8337V20.8337H14.167V10.8337Z" fill="#DAE0E6"/>
</svg>
