<svg width="120" height="120" viewBox="0 0 120 120" fill="none" xmlns="http://www.w3.org/2000/svg">
<path fill-rule="evenodd" clip-rule="evenodd" d="M81.3607 51.3587C81.3607 62.4043 72.4064 71.3587 61.3607 71.3587C50.315 71.3587 41.3607 62.4043 41.3607 51.3587C41.3607 40.313 50.315 31.3587 61.3607 31.3587C72.4064 31.3587 81.3607 40.313 81.3607 51.3587ZM71.3607 51.3587C71.3607 56.8815 66.8836 61.3587 61.3607 61.3587C55.8379 61.3587 51.3607 56.8815 51.3607 51.3587C51.3607 45.8358 55.8379 41.3587 61.3607 41.3587C66.8836 41.3587 71.3607 45.8358 71.3607 51.3587Z" fill="#DAE0E6"/>
<path fill-rule="evenodd" clip-rule="evenodd" d="M28.9708 82.5893C10.9712 65.4523 10.2719 36.9685 27.4089 18.9689C44.5459 0.969263 73.0297 0.269962 91.0293 17.4069C109.029 34.5439 109.728 63.0278 92.5913 81.0274L61.562 113.619L28.9708 82.5893ZM85.3488 74.132L61.2149 99.4807L35.8662 75.3468C21.8665 62.0181 21.3226 39.864 34.6514 25.8643C47.9801 11.8646 70.1342 11.3207 84.1339 24.6494C98.1336 37.9782 98.6775 60.1323 85.3488 74.132Z" fill="#DAE0E6"/>
</svg>
