<svg width="20" height="20" viewBox="0 0 20 20" fill="none" xmlns="http://www.w3.org/2000/svg">
<path fill-rule="evenodd" clip-rule="evenodd" d="M13.5601 8.55978C13.5601 10.4007 12.0677 11.8931 10.2268 11.8931C8.38584 11.8931 6.89345 10.4007 6.89345 8.55978C6.89345 6.71883 8.38584 5.22644 10.2268 5.22644C12.0677 5.22644 13.5601 6.71883 13.5601 8.55978ZM11.8935 8.55978C11.8935 9.48025 11.1473 10.2264 10.2268 10.2264C9.30631 10.2264 8.56012 9.48025 8.56012 8.55978C8.56012 7.6393 9.30631 6.89311 10.2268 6.89311C11.1473 6.89311 11.8935 7.6393 11.8935 8.55978Z" fill="#FFAE00"/>
<path fill-rule="evenodd" clip-rule="evenodd" d="M4.82847 13.7649C1.82854 10.9087 1.71199 6.16142 4.56815 3.16148C7.42431 0.161544 12.1716 0.0449936 15.1716 2.90116C18.1715 5.75732 18.288 10.5046 15.4319 13.5046L10.2603 18.9364L4.82847 13.7649ZM14.2248 12.3553L10.2025 16.5801L5.9777 12.5578C3.64442 10.3363 3.55377 6.64399 5.77523 4.31071C7.99669 1.97743 11.689 1.88678 14.0223 4.10824C16.3556 6.3297 16.4463 10.022 14.2248 12.3553Z" fill="#FFAE00"/>
</svg>
