<svg width="116" height="20" viewBox="0 0 116 20" fill="none" xmlns="http://www.w3.org/2000/svg">
<path d="M41.0938 5.97852H48.9756V16H47.6426V7.16113H42.4199V16H41.0938V5.97852ZM50.9854 18.7822V8.74023H52.1064V9.68359C52.3708 9.31445 52.6693 9.03874 53.002 8.85645C53.3346 8.6696 53.738 8.57617 54.2119 8.57617C54.8317 8.57617 55.3786 8.73568 55.8525 9.05469C56.3265 9.3737 56.6842 9.82487 56.9258 10.4082C57.1673 10.987 57.2881 11.6227 57.2881 12.3154C57.2881 13.0583 57.1536 13.7282 56.8848 14.3252C56.6204 14.9176 56.2331 15.3734 55.7227 15.6924C55.2168 16.0068 54.6836 16.1641 54.123 16.1641C53.7129 16.1641 53.3438 16.0775 53.0156 15.9043C52.6921 15.7311 52.4255 15.5124 52.2158 15.248V18.7822H50.9854ZM52.0996 12.4111C52.0996 13.3454 52.2887 14.0358 52.667 14.4824C53.0452 14.929 53.5033 15.1523 54.041 15.1523C54.5879 15.1523 55.055 14.9222 55.4424 14.4619C55.8343 13.9971 56.0303 13.2793 56.0303 12.3086C56.0303 11.3835 55.8389 10.6908 55.4561 10.2305C55.0778 9.77018 54.6243 9.54004 54.0957 9.54004C53.5716 9.54004 53.1068 9.78613 52.7012 10.2783C52.3001 10.766 52.0996 11.4769 52.0996 12.4111ZM58.3203 12.3701C58.3203 11.0257 58.694 10.0299 59.4414 9.38281C60.0658 8.84505 60.8268 8.57617 61.7246 8.57617C62.7227 8.57617 63.5384 8.9043 64.1719 9.56055C64.8053 10.2122 65.1221 11.1146 65.1221 12.2676C65.1221 13.2018 64.9808 13.9378 64.6982 14.4756C64.4202 15.0088 64.0124 15.4235 63.4746 15.7197C62.9414 16.016 62.3581 16.1641 61.7246 16.1641C60.7083 16.1641 59.8857 15.8382 59.2568 15.1865C58.6325 14.5348 58.3203 13.596 58.3203 12.3701ZM59.585 12.3701C59.585 13.2998 59.7878 13.9971 60.1934 14.4619C60.599 14.9222 61.1094 15.1523 61.7246 15.1523C62.3353 15.1523 62.8434 14.9199 63.249 14.4551C63.6546 13.9902 63.8574 13.2816 63.8574 12.3291C63.8574 11.4313 63.6523 10.7523 63.2422 10.292C62.8366 9.82715 62.3307 9.59473 61.7246 9.59473C61.1094 9.59473 60.599 9.82487 60.1934 10.2852C59.7878 10.7454 59.585 11.4404 59.585 12.3701ZM66.6055 8.74023H68.5195L70.4268 14.5508L72.5459 8.74023H74.3164V16H73.0859V10.1553L70.9395 16H69.8389L67.8086 9.875V16H66.6055V8.74023ZM75.7383 12.3701C75.7383 11.0257 76.112 10.0299 76.8594 9.38281C77.4837 8.84505 78.2448 8.57617 79.1426 8.57617C80.1406 8.57617 80.9564 8.9043 81.5898 9.56055C82.2233 10.2122 82.54 11.1146 82.54 12.2676C82.54 13.2018 82.3988 13.9378 82.1162 14.4756C81.8382 15.0088 81.4303 15.4235 80.8926 15.7197C80.3594 16.016 79.776 16.1641 79.1426 16.1641C78.1263 16.1641 77.3037 15.8382 76.6748 15.1865C76.0505 14.5348 75.7383 13.596 75.7383 12.3701ZM77.0029 12.3701C77.0029 13.2998 77.2057 13.9971 77.6113 14.4619C78.0169 14.9222 78.5273 15.1523 79.1426 15.1523C79.7533 15.1523 80.2614 14.9199 80.667 14.4551C81.0726 13.9902 81.2754 13.2816 81.2754 12.3291C81.2754 11.4313 81.0703 10.7523 80.6602 10.292C80.2546 9.82715 79.7487 9.59473 79.1426 9.59473C78.5273 9.59473 78.0169 9.82487 77.6113 10.2852C77.2057 10.7454 77.0029 11.4404 77.0029 12.3701ZM83.9824 8.74023H85.2129V11.8779C85.6048 11.8779 85.8783 11.8027 86.0332 11.6523C86.1927 11.502 86.4251 11.0645 86.7305 10.3398C86.972 9.76562 87.168 9.38737 87.3184 9.20508C87.4688 9.02279 87.6419 8.89974 87.8379 8.83594C88.0339 8.77214 88.3483 8.74023 88.7812 8.74023H89.0273V9.75879L88.6855 9.75195C88.362 9.75195 88.1546 9.7998 88.0635 9.89551C87.9678 9.99577 87.8219 10.2943 87.626 10.791C87.4391 11.265 87.2682 11.5931 87.1133 11.7754C86.9583 11.9577 86.7191 12.124 86.3955 12.2744C86.9242 12.4157 87.4437 12.9079 87.9541 13.751L89.3008 16H87.9473L86.6348 13.751C86.3659 13.2998 86.1312 13.0036 85.9307 12.8623C85.7301 12.7165 85.4909 12.6436 85.2129 12.6436V16H83.9824V8.74023ZM89.8203 12.3701C89.8203 11.0257 90.194 10.0299 90.9414 9.38281C91.5658 8.84505 92.3268 8.57617 93.2246 8.57617C94.2227 8.57617 95.0384 8.9043 95.6719 9.56055C96.3053 10.2122 96.6221 11.1146 96.6221 12.2676C96.6221 13.2018 96.4808 13.9378 96.1982 14.4756C95.9202 15.0088 95.5124 15.4235 94.9746 15.7197C94.4414 16.016 93.8581 16.1641 93.2246 16.1641C92.2083 16.1641 91.3857 15.8382 90.7568 15.1865C90.1325 14.5348 89.8203 13.596 89.8203 12.3701ZM91.085 12.3701C91.085 13.2998 91.2878 13.9971 91.6934 14.4619C92.099 14.9222 92.6094 15.1523 93.2246 15.1523C93.8353 15.1523 94.3434 14.9199 94.749 14.4551C95.1546 13.9902 95.3574 13.2816 95.3574 12.3291C95.3574 11.4313 95.1523 10.7523 94.7422 10.292C94.3366 9.82715 93.8307 9.59473 93.2246 9.59473C92.6094 9.59473 92.099 9.82487 91.6934 10.2852C91.2878 10.7454 91.085 11.4404 91.085 12.3701ZM98.7275 8.74023H103.786V14.9883H104.572V18.0576H103.561V16H97.8457V18.0576H96.834V14.9883H97.4834C98.3493 13.8125 98.764 11.7298 98.7275 8.74023ZM99.7529 9.75879C99.6618 12.1149 99.2972 13.8581 98.6592 14.9883H102.562V9.75879H99.7529ZM112.844 8.74023H114.074V16H112.844V8.74023ZM105.96 8.74023H107.19V11.5771H108.749C109.765 11.5771 110.547 11.7754 111.094 12.1719C111.645 12.5638 111.921 13.1061 111.921 13.7988C111.921 14.4049 111.691 14.9245 111.23 15.3574C110.775 15.7858 110.043 16 109.036 16H105.96V8.74023ZM107.19 14.9883H108.482C109.262 14.9883 109.818 14.8926 110.15 14.7012C110.483 14.5098 110.649 14.2113 110.649 13.8057C110.649 13.4912 110.526 13.2109 110.28 12.9648C110.034 12.7188 109.49 12.5957 108.646 12.5957H107.19V14.9883Z" fill="#171F26"/>
<path fill-rule="evenodd" clip-rule="evenodd" d="M3.33301 2.5C1.9523 2.5 0.833008 3.61929 0.833008 5V8.33333C0.833008 9.71404 1.9523 10.8333 3.33301 10.8333H16.6663C18.0471 10.8333 19.1663 9.71404 19.1663 8.33333V5C19.1663 3.61929 18.0471 2.5 16.6663 2.5H3.33301ZM16.6663 4.16667H3.33301C2.87277 4.16667 2.49967 4.53976 2.49967 5V8.33333C2.49967 8.79357 2.87277 9.16667 3.33301 9.16667H16.6663C17.1266 9.16667 17.4997 8.79357 17.4997 8.33333V5C17.4997 4.53976 17.1266 4.16667 16.6663 4.16667Z" fill="#DAE0E6"/>
<path d="M5.83301 16.6667C5.83301 16.2064 6.2061 15.8333 6.66634 15.8333H13.333C13.7932 15.8333 14.1663 16.2064 14.1663 16.6667C14.1663 17.1269 13.7932 17.5 13.333 17.5H6.66634C6.2061 17.5 5.83301 17.1269 5.83301 16.6667Z" fill="#DAE0E6"/>
<path d="M4.16634 12.5C3.7061 12.5 3.33301 12.8731 3.33301 13.3333C3.33301 13.7936 3.7061 14.1667 4.16634 14.1667H15.833C16.2932 14.1667 16.6663 13.7936 16.6663 13.3333C16.6663 12.8731 16.2932 12.5 15.833 12.5H4.16634Z" fill="#DAE0E6"/>
</svg>
