<svg width="6" height="8" viewBox="0 0 6 8" fill="none" xmlns="http://www.w3.org/2000/svg">
<path d="M5.07232 3.68784L1.51222 0.127804C1.42988 0.045398 1.31996 0 1.20276 0C1.08556 0 0.975638 0.045398 0.893298 0.127804L0.631121 0.389915C0.460521 0.560711 0.460521 0.838302 0.631121 1.00884L3.62063 3.99834L0.627804 6.99116C0.545463 7.07357 0.5 7.18342 0.5 7.30056C0.5 7.41783 0.545463 7.52768 0.627804 7.61015L0.889981 7.8722C0.972386 7.9546 1.08224 8 1.19944 8C1.31664 8 1.42656 7.9546 1.5089 7.8722L5.07232 4.30891C5.15486 4.22624 5.20019 4.11587 5.19993 3.99854C5.20019 3.88075 5.15486 3.77044 5.07232 3.68784Z" fill="#DAE0E6"/>
</svg>
