<svg width="213" height="20" viewBox="0 0 213 20" fill="none" xmlns="http://www.w3.org/2000/svg">
<path d="M41.1211 16V5.97852H42.4473V10.0938H47.6562V5.97852H48.9824V16H47.6562V11.2764H42.4473V16H41.1211ZM55.7773 15.1045C55.3216 15.4919 54.8818 15.7653 54.458 15.9248C54.0387 16.0843 53.5876 16.1641 53.1045 16.1641C52.307 16.1641 51.694 15.9704 51.2656 15.583C50.8372 15.1911 50.623 14.6921 50.623 14.0859C50.623 13.7305 50.7028 13.4069 50.8623 13.1152C51.0264 12.819 51.2383 12.582 51.498 12.4043C51.7624 12.2266 52.0586 12.0921 52.3867 12.001C52.6283 11.9372 52.9928 11.8757 53.4805 11.8164C54.474 11.6979 55.2054 11.5566 55.6748 11.3926C55.6794 11.224 55.6816 11.1169 55.6816 11.0713C55.6816 10.57 55.5654 10.2168 55.333 10.0117C55.0186 9.73372 54.5514 9.59473 53.9316 9.59473C53.3529 9.59473 52.9245 9.69727 52.6465 9.90234C52.373 10.1029 52.1702 10.4606 52.0381 10.9756L50.835 10.8115C50.9443 10.2965 51.1243 9.88184 51.375 9.56738C51.6257 9.24837 51.988 9.00456 52.4619 8.83594C52.9359 8.66276 53.485 8.57617 54.1094 8.57617C54.7292 8.57617 55.2327 8.64909 55.6201 8.79492C56.0075 8.94076 56.2923 9.12533 56.4746 9.34863C56.6569 9.56738 56.7845 9.84538 56.8574 10.1826C56.8984 10.3923 56.9189 10.7705 56.9189 11.3174V12.958C56.9189 14.1019 56.944 14.8265 56.9941 15.1318C57.0488 15.4326 57.1536 15.722 57.3086 16H56.0234C55.8958 15.7448 55.8138 15.4463 55.7773 15.1045ZM55.6748 12.3564C55.2282 12.5387 54.5583 12.6937 53.665 12.8213C53.1592 12.8942 52.8014 12.9762 52.5918 13.0674C52.3822 13.1585 52.2204 13.293 52.1064 13.4707C51.9925 13.6439 51.9355 13.8376 51.9355 14.0518C51.9355 14.3799 52.0586 14.6533 52.3047 14.8721C52.5553 15.0908 52.9199 15.2002 53.3984 15.2002C53.8724 15.2002 54.2939 15.0977 54.6631 14.8926C55.0322 14.6829 55.3034 14.3981 55.4766 14.0381C55.6087 13.7601 55.6748 13.3499 55.6748 12.8076V12.3564ZM63.5703 13.3408L64.7803 13.498C64.6481 14.332 64.3086 14.986 63.7617 15.46C63.2194 15.9294 62.5518 16.1641 61.7588 16.1641C60.7653 16.1641 59.9655 15.8405 59.3594 15.1934C58.7578 14.5417 58.457 13.6097 58.457 12.3975C58.457 11.6136 58.5869 10.9277 58.8467 10.3398C59.1064 9.75195 59.5007 9.31217 60.0293 9.02051C60.5625 8.72428 61.1413 8.57617 61.7656 8.57617C62.554 8.57617 63.1989 8.77669 63.7002 9.17773C64.2015 9.57422 64.5228 10.1393 64.6641 10.873L63.4678 11.0576C63.3538 10.57 63.151 10.2031 62.8594 9.95703C62.5723 9.71094 62.2236 9.58789 61.8135 9.58789C61.1937 9.58789 60.6901 9.8112 60.3027 10.2578C59.9154 10.6999 59.7217 11.4017 59.7217 12.3633C59.7217 13.3385 59.9085 14.0472 60.2822 14.4893C60.6559 14.9313 61.1436 15.1523 61.7451 15.1523C62.2282 15.1523 62.6315 15.0042 62.9551 14.708C63.2786 14.4118 63.4837 13.9561 63.5703 13.3408ZM65.1699 8.74023H71.0693V9.75879H68.7314V16H67.5078V9.75879H65.1699V8.74023ZM72.2451 18.7822V8.74023H73.3662V9.68359C73.6305 9.31445 73.929 9.03874 74.2617 8.85645C74.5944 8.6696 74.9977 8.57617 75.4717 8.57617C76.0915 8.57617 76.6383 8.73568 77.1123 9.05469C77.5863 9.3737 77.944 9.82487 78.1855 10.4082C78.4271 10.987 78.5479 11.6227 78.5479 12.3154C78.5479 13.0583 78.4134 13.7282 78.1445 14.3252C77.8802 14.9176 77.4928 15.3734 76.9824 15.6924C76.4766 16.0068 75.9434 16.1641 75.3828 16.1641C74.9727 16.1641 74.6035 16.0775 74.2754 15.9043C73.9518 15.7311 73.6852 15.5124 73.4756 15.248V18.7822H72.2451ZM73.3594 12.4111C73.3594 13.3454 73.5485 14.0358 73.9268 14.4824C74.305 14.929 74.763 15.1523 75.3008 15.1523C75.8477 15.1523 76.3148 14.9222 76.7021 14.4619C77.0941 13.9971 77.29 13.2793 77.29 12.3086C77.29 11.3835 77.0986 10.6908 76.7158 10.2305C76.3376 9.77018 75.8841 9.54004 75.3555 9.54004C74.8314 9.54004 74.3665 9.78613 73.9609 10.2783C73.5599 10.766 73.3594 11.4769 73.3594 12.4111ZM79.5801 12.3701C79.5801 11.0257 79.9538 10.0299 80.7012 9.38281C81.3255 8.84505 82.0866 8.57617 82.9844 8.57617C83.9824 8.57617 84.7982 8.9043 85.4316 9.56055C86.0651 10.2122 86.3818 11.1146 86.3818 12.2676C86.3818 13.2018 86.2406 13.9378 85.958 14.4756C85.68 15.0088 85.2721 15.4235 84.7344 15.7197C84.2012 16.016 83.6178 16.1641 82.9844 16.1641C81.9681 16.1641 81.1455 15.8382 80.5166 15.1865C79.8923 14.5348 79.5801 13.596 79.5801 12.3701ZM80.8447 12.3701C80.8447 13.2998 81.0475 13.9971 81.4531 14.4619C81.8587 14.9222 82.3691 15.1523 82.9844 15.1523C83.5951 15.1523 84.1032 14.9199 84.5088 14.4551C84.9144 13.9902 85.1172 13.2816 85.1172 12.3291C85.1172 11.4313 84.9121 10.7523 84.502 10.292C84.0964 9.82715 83.5905 9.59473 82.9844 9.59473C82.3691 9.59473 81.8587 9.82487 81.4531 10.2852C81.0475 10.7454 80.8447 11.4404 80.8447 12.3701ZM87.8311 8.74023H89.0615V14.2773L92.4727 8.74023H93.7988V16H92.5684V10.4971L89.1572 16H87.8311V8.74023ZM92.1035 5.99219H92.9443C92.876 6.56185 92.6663 6.99935 92.3154 7.30469C91.9691 7.61003 91.5065 7.7627 90.9277 7.7627C90.3444 7.7627 89.8773 7.6123 89.5264 7.31152C89.18 7.00618 88.9727 6.56641 88.9043 5.99219H89.7451C89.8089 6.30208 89.9342 6.53451 90.1211 6.68945C90.3125 6.83984 90.5677 6.91504 90.8867 6.91504C91.2559 6.91504 91.5339 6.84212 91.7207 6.69629C91.9121 6.5459 92.0397 6.3112 92.1035 5.99219ZM95.6445 8.74023H96.875V11.8779C97.2669 11.8779 97.5404 11.8027 97.6953 11.6523C97.8548 11.502 98.0872 11.0645 98.3926 10.3398C98.6341 9.76562 98.8301 9.38737 98.9805 9.20508C99.1309 9.02279 99.304 8.89974 99.5 8.83594C99.696 8.77214 100.01 8.74023 100.443 8.74023H100.689V9.75879L100.348 9.75195C100.024 9.75195 99.8167 9.7998 99.7256 9.89551C99.6299 9.99577 99.484 10.2943 99.2881 10.791C99.1012 11.265 98.9303 11.5931 98.7754 11.7754C98.6204 11.9577 98.3812 12.124 98.0576 12.2744C98.5863 12.4157 99.1058 12.9079 99.6162 13.751L100.963 16H99.6094L98.2969 13.751C98.028 13.2998 97.7933 13.0036 97.5928 12.8623C97.3923 12.7165 97.153 12.6436 96.875 12.6436V16H95.6445V8.74023ZM101.776 8.74023H103.007V14.2773L106.418 8.74023H107.744V16H106.514V10.4971L103.103 16H101.776V8.74023ZM113.493 8.74023H114.724V14.2773L118.135 8.74023H119.461V16H118.23V10.4971L114.819 16H113.493V8.74023ZM130.528 5.73926L131.615 5.75293C131.565 6.24056 131.456 6.58008 131.287 6.77148C131.123 6.96289 130.909 7.08594 130.645 7.14062C130.385 7.19531 129.872 7.22266 129.106 7.22266C128.09 7.22266 127.397 7.32064 127.028 7.5166C126.659 7.71257 126.393 8.02702 126.229 8.45996C126.069 8.88835 125.98 9.44206 125.962 10.1211C126.272 9.66081 126.634 9.31673 127.049 9.08887C127.464 8.85645 127.931 8.74023 128.45 8.74023C129.403 8.74023 130.191 9.06836 130.815 9.72461C131.44 10.3763 131.752 11.2604 131.752 12.377C131.752 13.2246 131.595 13.9196 131.28 14.4619C130.966 15.0042 130.592 15.4235 130.159 15.7197C129.731 16.016 129.145 16.1641 128.402 16.1641C127.541 16.1641 126.871 15.9681 126.393 15.5762C125.914 15.1797 125.547 14.6738 125.292 14.0586C125.037 13.4434 124.909 12.3724 124.909 10.8457C124.909 8.92708 125.233 7.63509 125.88 6.96973C126.532 6.30436 127.532 5.97168 128.881 5.97168C129.719 5.97168 130.196 5.95801 130.31 5.93066C130.424 5.90332 130.496 5.83952 130.528 5.73926ZM130.467 12.3428C130.467 11.5863 130.287 10.9665 129.927 10.4834C129.571 10.0003 129.068 9.75879 128.416 9.75879C127.737 9.75879 127.213 10.014 126.844 10.5244C126.475 11.0348 126.29 11.7161 126.29 12.5684C126.29 13.4115 126.493 14.0563 126.898 14.5029C127.309 14.9495 127.812 15.1729 128.409 15.1729C129.02 15.1729 129.514 14.9154 129.893 14.4004C130.275 13.8809 130.467 13.195 130.467 12.3428ZM138.041 13.6621L139.312 13.8193C139.112 14.5622 138.741 15.1387 138.198 15.5488C137.656 15.959 136.963 16.1641 136.12 16.1641C135.058 16.1641 134.215 15.8382 133.591 15.1865C132.971 14.5303 132.661 13.612 132.661 12.4316C132.661 11.2103 132.976 10.2624 133.604 9.58789C134.233 8.91341 135.049 8.57617 136.052 8.57617C137.022 8.57617 137.815 8.90658 138.431 9.56738C139.046 10.2282 139.354 11.1579 139.354 12.3564C139.354 12.4294 139.351 12.5387 139.347 12.6846H133.933C133.978 13.4821 134.204 14.0928 134.609 14.5166C135.015 14.9404 135.521 15.1523 136.127 15.1523C136.578 15.1523 136.963 15.0339 137.282 14.7969C137.601 14.5599 137.854 14.1816 138.041 13.6621ZM134.001 11.6729H138.055C138 11.0622 137.845 10.6042 137.59 10.2988C137.198 9.82487 136.69 9.58789 136.065 9.58789C135.5 9.58789 135.024 9.77702 134.637 10.1553C134.254 10.5335 134.042 11.0394 134.001 11.6729ZM142.156 12.7188V11.7549C142.676 11.7503 143.029 11.7298 143.216 11.6934C143.407 11.6569 143.587 11.5475 143.756 11.3652C143.924 11.1829 144.009 10.9551 144.009 10.6816C144.009 10.349 143.897 10.0846 143.674 9.88867C143.455 9.68815 143.17 9.58789 142.819 9.58789C142.127 9.58789 141.641 9.99577 141.363 10.8115L140.194 10.6201C140.559 9.25749 141.438 8.57617 142.833 8.57617C143.608 8.57617 144.214 8.78809 144.651 9.21191C145.093 9.63574 145.314 10.1416 145.314 10.7295C145.314 11.3219 145.027 11.7936 144.453 12.1445C144.818 12.3405 145.091 12.5911 145.273 12.8965C145.456 13.1973 145.547 13.555 145.547 13.9697C145.547 14.6214 145.31 15.1501 144.836 15.5557C144.362 15.9613 143.699 16.1641 142.847 16.1641C141.192 16.1641 140.233 15.4281 139.969 13.9561L141.124 13.71C141.229 14.1748 141.441 14.5348 141.76 14.79C142.083 15.0452 142.452 15.1729 142.867 15.1729C143.282 15.1729 143.626 15.0566 143.899 14.8242C144.177 14.5872 144.316 14.2865 144.316 13.9219C144.316 13.6393 144.23 13.3932 144.057 13.1836C143.883 12.974 143.699 12.8441 143.503 12.7939C143.307 12.7393 142.951 12.7119 142.437 12.7119C142.396 12.7119 142.302 12.7142 142.156 12.7188ZM146.354 12.3701C146.354 11.0257 146.727 10.0299 147.475 9.38281C148.099 8.84505 148.86 8.57617 149.758 8.57617C150.756 8.57617 151.572 8.9043 152.205 9.56055C152.839 10.2122 153.155 11.1146 153.155 12.2676C153.155 13.2018 153.014 13.9378 152.731 14.4756C152.453 15.0088 152.046 15.4235 151.508 15.7197C150.975 16.016 150.391 16.1641 149.758 16.1641C148.742 16.1641 147.919 15.8382 147.29 15.1865C146.666 14.5348 146.354 13.596 146.354 12.3701ZM147.618 12.3701C147.618 13.2998 147.821 13.9971 148.227 14.4619C148.632 14.9222 149.143 15.1523 149.758 15.1523C150.368 15.1523 150.877 14.9199 151.282 14.4551C151.688 13.9902 151.891 13.2816 151.891 12.3291C151.891 11.4313 151.686 10.7523 151.275 10.292C150.87 9.82715 150.364 9.59473 149.758 9.59473C149.143 9.59473 148.632 9.82487 148.227 10.2852C147.821 10.7454 147.618 11.4404 147.618 12.3701ZM154.611 8.74023H160.34V16H159.109V9.75879H155.842V16H154.611V8.74023ZM166.93 15.1045C166.474 15.4919 166.034 15.7653 165.61 15.9248C165.191 16.0843 164.74 16.1641 164.257 16.1641C163.459 16.1641 162.846 15.9704 162.418 15.583C161.99 15.1911 161.775 14.6921 161.775 14.0859C161.775 13.7305 161.855 13.4069 162.015 13.1152C162.179 12.819 162.391 12.582 162.65 12.4043C162.915 12.2266 163.211 12.0921 163.539 12.001C163.781 11.9372 164.145 11.8757 164.633 11.8164C165.626 11.6979 166.358 11.5566 166.827 11.3926C166.832 11.224 166.834 11.1169 166.834 11.0713C166.834 10.57 166.718 10.2168 166.485 10.0117C166.171 9.73372 165.704 9.59473 165.084 9.59473C164.505 9.59473 164.077 9.69727 163.799 9.90234C163.525 10.1029 163.323 10.4606 163.19 10.9756L161.987 10.8115C162.097 10.2965 162.277 9.88184 162.527 9.56738C162.778 9.24837 163.14 9.00456 163.614 8.83594C164.088 8.66276 164.637 8.57617 165.262 8.57617C165.882 8.57617 166.385 8.64909 166.772 8.79492C167.16 8.94076 167.445 9.12533 167.627 9.34863C167.809 9.56738 167.937 9.84538 168.01 10.1826C168.051 10.3923 168.071 10.7705 168.071 11.3174V12.958C168.071 14.1019 168.096 14.8265 168.146 15.1318C168.201 15.4326 168.306 15.722 168.461 16H167.176C167.048 15.7448 166.966 15.4463 166.93 15.1045ZM166.827 12.3564C166.381 12.5387 165.711 12.6937 164.817 12.8213C164.312 12.8942 163.954 12.9762 163.744 13.0674C163.535 13.1585 163.373 13.293 163.259 13.4707C163.145 13.6439 163.088 13.8376 163.088 14.0518C163.088 14.3799 163.211 14.6533 163.457 14.8721C163.708 15.0908 164.072 15.2002 164.551 15.2002C165.025 15.2002 165.446 15.0977 165.815 14.8926C166.185 14.6829 166.456 14.3981 166.629 14.0381C166.761 13.7601 166.827 13.3499 166.827 12.8076V12.3564ZM174.723 13.3408L175.933 13.498C175.8 14.332 175.461 14.986 174.914 15.46C174.372 15.9294 173.704 16.1641 172.911 16.1641C171.918 16.1641 171.118 15.8405 170.512 15.1934C169.91 14.5417 169.609 13.6097 169.609 12.3975C169.609 11.6136 169.739 10.9277 169.999 10.3398C170.259 9.75195 170.653 9.31217 171.182 9.02051C171.715 8.72428 172.294 8.57617 172.918 8.57617C173.706 8.57617 174.351 8.77669 174.853 9.17773C175.354 9.57422 175.675 10.1393 175.816 10.873L174.62 11.0576C174.506 10.57 174.303 10.2031 174.012 9.95703C173.725 9.71094 173.376 9.58789 172.966 9.58789C172.346 9.58789 171.842 9.8112 171.455 10.2578C171.068 10.6999 170.874 11.4017 170.874 12.3633C170.874 13.3385 171.061 14.0472 171.435 14.4893C171.808 14.9313 172.296 15.1523 172.897 15.1523C173.381 15.1523 173.784 15.0042 174.107 14.708C174.431 14.4118 174.636 13.9561 174.723 13.3408ZM176.992 8.74023H178.223V11.7617H181.634V8.74023H182.864V16H181.634V12.7803H178.223V16H176.992V8.74023ZM184.266 12.3701C184.266 11.0257 184.639 10.0299 185.387 9.38281C186.011 8.84505 186.772 8.57617 187.67 8.57617C188.668 8.57617 189.484 8.9043 190.117 9.56055C190.751 10.2122 191.067 11.1146 191.067 12.2676C191.067 13.2018 190.926 13.9378 190.644 14.4756C190.366 15.0088 189.958 15.4235 189.42 15.7197C188.887 16.016 188.303 16.1641 187.67 16.1641C186.654 16.1641 185.831 15.8382 185.202 15.1865C184.578 14.5348 184.266 13.596 184.266 12.3701ZM185.53 12.3701C185.53 13.2998 185.733 13.9971 186.139 14.4619C186.544 14.9222 187.055 15.1523 187.67 15.1523C188.281 15.1523 188.789 14.9199 189.194 14.4551C189.6 13.9902 189.803 13.2816 189.803 12.3291C189.803 11.4313 189.598 10.7523 189.188 10.292C188.782 9.82715 188.276 9.59473 187.67 9.59473C187.055 9.59473 186.544 9.82487 186.139 10.2852C185.733 10.7454 185.53 11.4404 185.53 12.3701ZM197.254 13.3408L198.464 13.498C198.332 14.332 197.992 14.986 197.445 15.46C196.903 15.9294 196.235 16.1641 195.442 16.1641C194.449 16.1641 193.649 15.8405 193.043 15.1934C192.441 14.5417 192.141 13.6097 192.141 12.3975C192.141 11.6136 192.271 10.9277 192.53 10.3398C192.79 9.75195 193.184 9.31217 193.713 9.02051C194.246 8.72428 194.825 8.57617 195.449 8.57617C196.238 8.57617 196.882 8.77669 197.384 9.17773C197.885 9.57422 198.206 10.1393 198.348 10.873L197.151 11.0576C197.037 10.57 196.835 10.2031 196.543 9.95703C196.256 9.71094 195.907 9.58789 195.497 9.58789C194.877 9.58789 194.374 9.8112 193.986 10.2578C193.599 10.6999 193.405 11.4017 193.405 12.3633C193.405 13.3385 193.592 14.0472 193.966 14.4893C194.34 14.9313 194.827 15.1523 195.429 15.1523C195.912 15.1523 196.315 15.0042 196.639 14.708C196.962 14.4118 197.167 13.9561 197.254 13.3408ZM198.854 8.74023H204.753V9.75879H202.415V16H201.191V9.75879H198.854V8.74023ZM205.908 8.74023H207.139V11.5771H208.697C209.714 11.5771 210.495 11.7754 211.042 12.1719C211.593 12.5638 211.869 13.1061 211.869 13.7988C211.869 14.4049 211.639 14.9245 211.179 15.3574C210.723 15.7858 209.992 16 208.984 16H205.908V8.74023ZM207.139 14.9883H208.431C209.21 14.9883 209.766 14.8926 210.099 14.7012C210.431 14.5098 210.598 14.2113 210.598 13.8057C210.598 13.4912 210.475 13.2109 210.229 12.9648C209.982 12.7188 209.438 12.5957 208.595 12.5957H207.139V14.9883Z" fill="#171F26"/>
<path fill-rule="evenodd" clip-rule="evenodd" d="M15 8.75C16.3807 8.75 17.5 9.86929 17.5 11.25V16.25C17.5 17.6307 16.3807 18.75 15 18.75H5C3.61929 18.75 2.5 17.6307 2.5 16.25V11.25C2.5 9.86929 3.61929 8.75 5 8.75V6.25C5 3.48858 7.23858 1.25 10 1.25C12.7614 1.25 15 3.48858 15 6.25V8.75ZM10 2.91667C11.8409 2.91667 13.3333 4.40905 13.3333 6.25V8.75H6.66667V6.25C6.66667 4.40905 8.15905 2.91667 10 2.91667ZM15 10.4167H5C4.53976 10.4167 4.16667 10.7898 4.16667 11.25V16.25C4.16667 16.7102 4.53976 17.0833 5 17.0833H15C15.4602 17.0833 15.8333 16.7102 15.8333 16.25V11.25C15.8333 10.7898 15.4602 10.4167 15 10.4167Z" fill="#DAE0E6"/>
</svg>
