<svg width="20" height="20" viewBox="0 0 20 20" fill="none" xmlns="http://www.w3.org/2000/svg">
<path d="M7.50033 9.1665C7.96056 9.1665 8.33366 8.79341 8.33366 8.33317C8.33366 7.87293 7.96056 7.49984 7.50033 7.49984C7.04009 7.49984 6.66699 7.87293 6.66699 8.33317C6.66699 8.79341 7.04009 9.1665 7.50033 9.1665Z" fill="#DAE0E6"/>
<path d="M11.667 14.1665C11.667 13.246 10.9208 12.4998 10.0003 12.4998C9.07985 12.4998 8.33366 13.246 8.33366 14.1665H6.66699C6.66699 12.3256 8.15938 10.8332 10.0003 10.8332C11.8413 10.8332 13.3337 12.3256 13.3337 14.1665H11.667Z" fill="#DAE0E6"/>
<path d="M13.3337 8.33317C13.3337 8.79341 12.9606 9.1665 12.5003 9.1665C12.0401 9.1665 11.667 8.79341 11.667 8.33317C11.667 7.87293 12.0401 7.49984 12.5003 7.49984C12.9606 7.49984 13.3337 7.87293 13.3337 8.33317Z" fill="#DAE0E6"/>
<path fill-rule="evenodd" clip-rule="evenodd" d="M18.3337 9.99984C18.3337 14.6022 14.6027 18.3332 10.0003 18.3332C5.39795 18.3332 1.66699 14.6022 1.66699 9.99984C1.66699 5.39746 5.39795 1.6665 10.0003 1.6665C14.6027 1.6665 18.3337 5.39746 18.3337 9.99984ZM16.667 9.99984C16.667 13.6817 13.6822 16.6665 10.0003 16.6665C6.31843 16.6665 3.33366 13.6817 3.33366 9.99984C3.33366 6.31794 6.31843 3.33317 10.0003 3.33317C13.6822 3.33317 16.667 6.31794 16.667 9.99984Z" fill="#DAE0E6"/>
</svg>
