<svg width="14" height="14" viewBox="0 0 14 14" fill="none" xmlns="http://www.w3.org/2000/svg">
<g clip-path="url(#clip0_146_82)">
<path d="M13.9634 5.36976C13.8712 5.08628 13.6198 4.88558 13.3235 4.85877L9.28208 4.49186L7.68491 0.752541C7.56698 0.477817 7.29867 0.300507 7.00002 0.300507C6.70137 0.300507 6.43295 0.477817 6.31577 0.752541L4.71859 4.49186L0.676564 4.85877C0.380264 4.88611 0.129359 5.08681 0.0366454 5.36976C-0.0555345 5.65324 0.0295957 5.96418 0.25369 6.16071L3.30866 8.83948L2.4079 12.8067C2.342 13.0985 2.45522 13.4001 2.69726 13.5751C2.82736 13.6696 2.98021 13.7168 3.13359 13.7168C3.2654 13.7168 3.39731 13.6818 3.51513 13.6113L7.00002 11.5275L10.4843 13.6113C10.7399 13.764 11.0613 13.75 11.3028 13.5751C11.5448 13.4001 11.658 13.0985 11.5921 12.8067L10.6914 8.83948L13.7463 6.16071C13.9703 5.96418 14.0556 5.65388 13.9634 5.36976Z" fill="#F2994A"/>
</g>
<defs>
<clipPath id="clip0_146_82">
<rect width="14" height="14" fill="white"/>
</clipPath>
</defs>
</svg>
